<svg width="45" height="33" viewBox="0 0 45 33" fill="none" xmlns="http://www.w3.org/2000/svg">
    <g clip-path="url(#clip0_1_122)">
        <path d="M43.6428 0H1.35725C1.17823 0.000265575 1.00103 0.0359915 0.835821 0.105136C0.670611 0.174281 0.520645 0.275481 0.394535 0.402919C0.268425 0.530357 0.168655 0.681521 0.100953 0.84774C0.0332517 1.01396 -0.00104777 1.19196 2.43803e-05 1.37151V4.05127L22.499 19.1746L44.998 4.05127V1.37151C44.9991 1.19213 44.9648 1.01429 44.8973 0.848208C44.8297 0.682121 44.7301 0.531046 44.6042 0.403635C44.4783 0.276225 44.3286 0.174993 44.1636 0.105728C43.9986 0.0364633 43.8216 0.000533856 43.6428 0V0Z" fill="white"/>
        <path d="M3.82088e-07 9.62305V27.5527C-0.000267227 28.2681 0.14004 28.9764 0.4129 29.6373C0.68576 30.2982 1.08582 30.8987 1.59021 31.4044C2.0946 31.9101 2.69342 32.3112 3.35244 32.5846C4.01146 32.858 4.71775 32.9985 5.43093 32.998H39.5691C40.2822 32.9985 40.9885 32.858 41.6476 32.5846C42.3066 32.3112 42.9054 31.9101 43.4098 31.4044C43.9142 30.8987 44.3142 30.2982 44.5871 29.6373C44.86 28.9764 45.0003 28.2681 45 27.5527V9.62305L22.501 24.7464L3.82088e-07 9.62305Z" fill="white"/>
    </g>
    <defs>
        <clipPath id="clip0_1_122">
            <rect width="45" height="33" fill="white"/>
        </clipPath>
    </defs>
</svg>
