<svg width="309" height="43" viewBox="0 0 309 43" fill="none" xmlns="http://www.w3.org/2000/svg">
<g clip-path="url(#clip0_1_114)">
<path d="M58.047 6.30901H61.934V31.582H76.465V35H58.047V6.30901ZM92.676 5.52801C97.7427 5.52801 101.493 7.15567 103.926 10.411C105.922 13.2581 106.924 16.6832 106.778 20.157C106.921 23.9832 105.772 27.7461 103.516 30.84C100.964 34.1733 97.3253 35.84 92.6 35.84C88.186 35.84 84.716 34.3817 82.19 31.465C79.8569 28.4115 78.6612 24.64 78.809 20.8C78.7091 17.2596 79.72 13.7767 81.7 10.84C84.1733 7.29801 87.832 5.52701 92.676 5.52701V5.52801ZM93.067 32.364C96.4917 32.364 98.969 31.1367 100.499 28.682C102.054 26.1357 102.851 23.1983 102.794 20.215C102.937 17.2679 101.995 14.3706 100.148 12.07C99.2526 11.0433 98.1367 10.2324 96.8836 9.69794C95.6305 9.16353 94.2728 8.91946 92.912 8.98401C91.552 8.93869 90.1983 9.18849 88.944 9.7162C87.6897 10.2439 86.5646 11.037 85.646 12.041C83.7713 14.079 82.834 17.0837 82.834 21.055C82.7401 23.9253 83.5872 26.7477 85.246 29.092C86.8527 31.2727 89.4593 32.363 93.066 32.363L93.067 32.364ZM123.809 5.56401C126.233 5.50278 128.634 6.04032 130.8 7.12901C133.652 8.62634 135.397 11.25 136.035 15H132.188C132.033 14.0811 131.695 13.2026 131.196 12.416C130.696 11.6295 130.044 10.9508 129.278 10.42C127.603 9.40785 125.668 8.90862 123.712 8.98401C122.443 8.96401 121.185 9.2211 120.026 9.73734C118.867 10.2536 117.834 11.0166 117 11.973C115.183 13.965 114.275 16.9337 114.275 20.879C114.144 23.8212 114.928 26.7316 116.521 29.209C118.018 31.351 120.46 32.422 123.845 32.422C126.198 32.5069 128.496 31.7013 130.281 30.166C131.98 28.662 132.849 26.2303 132.888 22.871H123.906V19.648H136.5V35H134L133.063 31.309C132.062 32.4893 130.88 33.5044 129.563 34.317C127.557 35.3505 125.318 35.8482 123.063 35.762C119.825 35.823 116.687 34.6422 114.293 32.462C111.626 29.7013 110.293 25.9123 110.293 21.095C110.293 16.2903 111.595 12.4687 114.199 9.63001C115.41 8.29594 116.897 7.24141 118.556 6.53963C120.216 5.83784 122.008 5.50561 123.809 5.56601V5.56401ZM154.9 5.52701C159.967 5.52701 163.717 7.15467 166.15 10.41C168.145 13.2574 169.146 16.6825 169 20.156C169.144 23.9821 167.996 27.7453 165.742 30.84C163.19 34.1733 159.551 35.84 154.824 35.84C150.408 35.84 146.938 34.3817 144.414 31.465C142.082 28.4112 140.887 24.6398 141.035 20.8C140.935 17.2593 141.946 13.776 143.926 10.839C146.4 7.29767 150.058 5.52701 154.9 5.52701ZM155.291 32.363C158.716 32.363 161.193 31.1357 162.723 28.681C164.278 26.1347 165.075 23.1973 165.018 20.214C165.161 17.2669 164.219 14.3696 162.372 12.069C161.477 11.0423 160.361 10.2314 159.108 9.69694C157.854 9.16253 156.497 8.91846 155.136 8.98301C153.776 8.9377 152.422 9.18749 151.168 9.7152C149.914 10.2429 148.789 11.036 147.87 12.04C145.995 14.078 145.058 17.0827 145.058 21.054C144.964 23.9243 145.811 26.7467 147.47 29.091C149.079 31.2723 151.686 32.363 155.293 32.363H155.291ZM185.623 6.30801H189.549V35H185.623V6.30801ZM195.76 6.30801H201.326L209.57 30.566L217.754 6.30801H223.262V35H219.57V18.066C219.57 17.48 219.583 16.51 219.609 15.156C219.635 13.802 219.648 12.3503 219.648 10.801L211.465 35H207.617L199.375 10.8V11.679C199.375 12.3823 199.391 13.4533 199.424 14.892C199.457 16.3307 199.473 17.3887 199.473 18.066V35H195.762L195.76 6.30801ZM243.905 23.242L239.55 10.566L234.921 23.242H243.905ZM237.52 6.30901H241.915L252.324 35H248.066L245.156 26.406H233.809L230.7 35H226.716L237.52 6.30901ZM268.262 5.56701C270.686 5.50499 273.087 6.04185 275.254 7.13001C278.105 8.62734 279.85 11.251 280.488 15.001H276.64C276.485 14.0821 276.148 13.2035 275.648 12.417C275.148 11.6304 274.496 10.9518 273.73 10.421C272.055 9.40885 270.12 8.90962 268.164 8.98501C266.896 8.96532 265.638 9.22247 264.48 9.73852C263.321 10.2546 262.289 11.0171 261.455 11.973C259.638 13.965 258.73 16.9337 258.73 20.879C258.599 23.8212 259.383 26.7316 260.976 29.209C262.473 31.351 264.915 32.422 268.3 32.422C270.653 32.5069 272.951 31.7013 274.736 30.166C276.435 28.662 277.304 26.2303 277.343 22.871H268.359V19.648H280.959V35H278.459L277.522 31.309C276.521 32.4893 275.339 33.5044 274.022 34.317C272.016 35.3505 269.777 35.8482 267.522 35.762C264.284 35.823 261.146 34.6422 258.752 32.462C256.085 29.7013 254.752 25.9123 254.752 21.095C254.752 16.2903 256.054 12.4687 258.658 9.63001C259.868 8.29672 261.354 7.24266 263.013 6.5409C264.671 5.83915 266.462 5.50649 268.262 5.56601V5.56701ZM287.344 6.30901H308.262V9.82501H291.133V18.536H306.973V21.856H291.133V31.583H308.555V35H287.344V6.30901Z" fill="#258CC3"/>
<path d="M21.5 43C33.3741 43 43 33.3741 43 21.5C43 9.62588 33.3741 0 21.5 0C9.62588 0 0 9.62588 0 21.5C0 33.3741 9.62588 43 21.5 43Z" fill="#258CC3"/>
<path d="M23.68 37L29.72 8.44H35.68L30.68 32H40.68L39.64 37H23.68Z" fill="white"/>
</g>
<defs>
<clipPath id="clip0_1_114">
<rect width="308.555" height="43" fill="white"/>
</clipPath>
</defs>
</svg>
